/* XPM */
static char *f61f0395ba48477f9f2221d1f53e8305ul0BI2kfOJmKCK58[] = {
/* columns rows colors chars-per-pixel */
"64 64 120 2 ",
"   c #5D1A07",
".  c #641B07",
"X  c #6B1D07",
"o  c #651D08",
"O  c #6B1E09",
"+  c #721E07",
"@  c #7A1F07",
"#  c #711E08",
"$  c #62200D",
"%  c #6D220E",
"&  c #75210A",
"*  c #7A220A",
"=  c #7E280F",
"-  c #642311",
";  c #6D2612",
":  c #6E2A17",
">  c #6F2B19",
",  c #742712",
"<  c #7B2710",
"1  c #732A16",
"2  c #7C2A13",
"3  c #7E2E19",
"4  c #723321",
"5  c #83250B",
"6  c #8B260B",
"7  c #82290E",
"8  c #8C280E",
"9  c #91270A",
"0  c #952A0D",
"q  c #992B0D",
"w  c #842B12",
"e  c #8A2C13",
"r  c #822F18",
"t  c #942E12",
"y  c #982F11",
"u  c #83321B",
"i  c #8B331B",
"p  c #953216",
"a  c #993214",
"s  c #93351B",
"d  c #9A361B",
"f  c #96381E",
"g  c #99391E",
"h  c #A22D0D",
"j  c #A92F0F",
"k  c #A4300C",
"l  c #AD300F",
"z  c #A72F10",
"x  c #A43511",
"c  c #AD3111",
"v  c #A33A1D",
"b  c #AE3D1F",
"n  c #B03211",
"m  c #813723",
"M  c #863A26",
"N  c #8A3B26",
"B  c #893F2B",
"V  c #963D25",
"C  c #9A3D23",
"Z  c #A13C21",
"A  c #AB3E21",
"S  c #9A4027",
"D  c #96402A",
"F  c #9A432B",
"G  c #9E4932",
"H  c #994D38",
"J  c #9E533F",
"K  c #A44024",
"L  c #AA4227",
"P  c #A1432B",
"I  c #AD472B",
"U  c #AF482C",
"Y  c #A04A32",
"T  c #8E6155",
"R  c #8E675C",
"E  c #8F695D",
"W  c #936356",
"Q  c #93675A",
"!  c #996558",
"~  c #94695D",
"^  c #9B6B5D",
"/  c #956D62",
"(  c #996E62",
")  c #8E7169",
"_  c #967166",
"`  c #997166",
"'  c #95756B",
"]  c #9B766B",
"[  c #96786F",
"{  c #9C796E",
"}  c #967771",
"|  c #977A71",
" . c #9B7C73",
".. c #9D7E78",
"X. c #A1756A",
"o. c #A4796E",
"O. c #A8796B",
"+. c #A47D74",
"@. c #A97E72",
"#. c #9D8077",
"$. c #9E8278",
"%. c #A68276",
"&. c #A98277",
"*. c #A2857B",
"=. c #AA8479",
"-. c #A7897E",
";. c #AC8A7E",
":. c #B0867A",
">. c #B38B7F",
",. c #A68680",
"<. c #A68A81",
"1. c #AA8C83",
"2. c #AD8E88",
"3. c #B08F86",
"4. c #AC9187",
"5. c #AE9288",
"6. c #B39087",
"7. c #B3948C",
"8. c #B4998F",
"9. c #B59A90",
/* pixels */
"9 0 9 t 9 6 6 9 9 q 0 s o.<.<.+.p 0 0 0 t 0 0 t 8 8 8 8 q h q q 0 0 0 q h h h h 6 6 5 i %.1.1.%.d 0 0 0 q q h q q 9 0 9 0 9 q 0 ",
"0 q q q 9 6 6 9 q q 0 d %.1.1.+.d q q q q q y q 8 8 8 8 h h h h q q 0 h h z z z 8 6 5 i %.5.5.=.d 0 q 0 h h h h q q q q q q q q ",
"0 q q q 9 9 9 9 0 q 0 d %.1.1.%.d q q q q q q q 8 8 8 8 h h h h q 0 q q z z h z 6 6 6 p &.4.4.&.d q q q h h h k q q q q q q q q ",
"9 0 t 9 9 6 6 6 0 0 0 d &.1.1.%.d q q q q q q t 8 5 8 8 q q q q 0 0 0 0 h h h y 6 6 5 p &.4.4.=.d q t q q h q q q 0 0 0 0 0 0 0 ",
"* = * * * 5 * * 5 5 5 i ;.7.8.>.b j l j 5 * * < # # # # % X # # < 5 @ < * * * * 5 5 * u =.4.4.%.d 0 0 0 5 5 5 5 5 * * * * * * 5 ",
"& * & * * * * * 5 5 5 e =.8.8.>.b l n j 5 * * @ % o X o . . . o + & @ & # # # & 7 * 5 u %.4.4.=.d q 0 0 * * 5 * * * * * * * * * ",
"& * & * * * & * 5 5 5 w @.8.8.>.A l n c * * * * O X O % . . . o @ & * * + & # * * 5 * u %.4.4.=.d q q 0 5 * * * * * * * @ @ * * ",
"& * * * * * * * @ 5 5 w O.8.8.>.A c c z * * * * # % O X o . o o @ < * * & & # & 5 * 5 u =.4.4.-.d q 0 0 5 * 5 * * * * * * 5 @ * ",
"+ * * * 5 5 5 5 # O O ; X.5.5.=.g q q q * * * * & & * & # O O # @ & < @ & * & & * * @ 3 %.4.4.%.i 5 5 5 5 6 6 8 * * * * 5 8 5 6 ",
"& * * * 6 6 6 6 O O o ; ] 2.5.=.d q q q 5 * * * * * * & # # + # & & & @ * * * * * * * r %.4.4.%.r 5 * 5 8 8 8 6 * * * * 5 8 6 6 ",
"* * @ * 5 6 6 5 # o O ; ] 5.5.;.C q q 0 5 @ * @ @ * * & + + X + @ @ @ < * * @ * & * & 3 %.4.4.%.r * * 5 8 8 8 8 * * * * 5 8 6 5 ",
"2 2 2 2 w e e e 1 ; ; > { 4.4.;.G a a p w 2 w 2 2 2 2 < , , , , 2 2 2 2 2 2 2 2 < < * u =.4.5.%.i 5 2 7 8 e e e * * * < 8 8 8 8 ",
"_ _ _ _ _ _ ` ` E ) E / -.5.5.4.X.( ( ( ( / / ( / / / / / / / ) / / ( / ( _ ( _ ~ W W ~ 2.7.7.4.~ W W W ! ! ! W T T T R / ~ ^ ^ ",
"$.$.$.$.#.#. .#.#.#.#.#.4.5.5.4.$. . . . . . . . . . . . . .} |  ... . . ... . . . . ...5.7.7.6.#.#.#.{  . . . . . . . .+.,.,.$.",
"$.$.$.#.#.#.#.#.#.#.#.[ 4.5.5.5.+.|  .}  . . . . . . . .| | | |  . . . . . . . . . . .+.5.7.7.5.#. .{  . . . . .| |  . .$.*.$.$.",
"{ { | { { ] ] ] ' ' ] [ =.;.;.=.+.] ` ] ] ] ` ] ` ] ] ]  . . . .] ] ` ] +. .+. . .{ {  .5.7.7.4. . .{ { } { { }  .| |  .$.*.$.$.",
"i i i i f f g g g g g g C C Z C g g g g s s s s g g d F &.1.1.%.K v v g K P P P F F F P G Y G F F S S F S S S S F F S G %.-.<.<.",
"5 5 5 6 0 0 q q q 0 0 q q q q q 0 0 q q 9 9 9 6 0 q 0 d =.4.5.=.v h h h h h h q q k q q q q 0 q q 0 q 0 9 q q 0 0 0 q d %.4.2.1.",
"7 5 6 5 0 q q q q q q q q 0 q q q q q 0 9 9 6 9 q q 0 d =.4.4.&.v h h h h h h h k q q q q q q q q q q q q 0 q q q q 0 d @.2.1.1.",
"5 6 6 6 8 q 0 0 0 q q q q 9 0 0 0 0 0 0 9 6 6 9 0 0 0 d =.4.4.=.x q h h h q h h q q q q q q q q 0 q 0 0 q q q q q q 0 d @.1.1.1.",
"0 0 0 0 5 * 5 * 9 0 0 0 5 * 5 * & & & & * * * * * = * u %.4.5.=.d q q q 5 5 5 * * & * * 5 5 5 5 * * & * 5 5 5 5 5 5 5 i =.5.2.2.",
"0 0 t q = * * * 9 q 0 0 5 & * * $ . . . & * * * & & + 3 %.4.5.&.g q q 0 * * * & + & + + & & * & & $ . % & * & * & * & 3 =.5.5.5.",
"0 q q q * * * * 9 0 9 q 5 * & & X . $ % & * * * & & * 3 %.4.4.&.d q q 0 * * * & # O + X * * * & X X X X & * * & * * * 3 *.5.5.5.",
"0 q q q * * * * 9 q q q * & & & & . % $ & * & & & & & 3 %.5.5.&.d q q 0 * & * * + + + & & * * & % X % X & * * * & * * 3 =.5.5.5.",
"0 q t 0 & . . o 5 6 6 5 & % X & & & & & o . o X + * + r =.6.7.:.v h k 0 & & % & @ < 5 * @ & & & & & & & * & * & * * * 3 &.4.2.1.",
"8 q q 0 %       * 5 5 5 & % X X & & * & . . . . @ * & r =.7.7.:.v k k k & $ . % * 5 5 @ & & % & & * & * * * * * * * * 3 %.1.2.1.",
"0 q q 0 X     . * 7 6 5 & $ % $ & & * & . . . . + @ & r =.7.7.:.v k k q & $ X & @ 5 5 * & & & & * * * * & * & * & * * 3 %.4.1.<.",
"t y y t % $ $ $ 7 7 6 7 & % % % * = = * O $ . o , < < m =.7.6.:.A x x x & % % % 2 7 7 7 & , & , = * < < < < = = < < * 3 %.1.2.<.",
"Q ^ ^ ^ E E E E ^ Q Q Q ~ E R R ~ ~ / Q R / ~ / / Q / / ,.2.5.1.( ^ ^ ^ Q E Q E ~ ~ ~ ~ ~ ~ ! ~ ~ ~ ~ ~ ~ ~ ! ~ ~ ~ T W <.5.5.<.",
"[  . . . . . . .#.#.#.[ #.#.[ #.| #... . . . ... . . .+.2.2.5.1.%. . . .{ #. .{  .| |  . . . . . . . . . . . . . . . .%.1.5.5.4.",
"'  . . . . . . .] #.{ #.#.[ #.#. . . . . . .+... . .{ ..5.5.5.2.#.{  . . . . . .| | | |  . . . .| |  . . . .{  . . .|  .5.7.5.1.",
"' ] ] ] ] ] ] { ] ] ] { [ #.#.[ | [ } ] { { { { { { { { 1.3.1.>.{ ] { ] ] { ] ] ] [ [ ]  . . . .{ { { ] ] [ { ] { { { { ;.1.1.<.",
"C C S Z C C V C C C C S o.<.1.&.H V V V C C C C P C Z Z U U I I S S S S C C C C C V C F @.1.<.%.G C C C C C V C K L L L D i M m ",
"0 h q q q 0 q 0 0 0 q y O.5.5.3.C 9 9 9 0 0 q 0 q y z h l n c n h q q q q q q 0 q 0 9 d &.5.4.=.s q q 0 q 0 q q l n n x * & * & ",
"0 q q y q q q q q q q a O.5.1.1.F 9 0 0 q q q q z q z y c c n c q q h h q q q q q q 0 d =.4.4.=.d q 0 q q q 0 q l c c l 5 * * * ",
"q q q q q q q 0 q 0 0 t O.4.3.1.C 0 9 q 9 q q 0 q z y z c c c c h q q q q q 0 0 q 0 q V =.4.4.=.d 0 q q q q q 0 l l n x 5 * * & ",
"* 5 5 5 5 * 5 5 5 5 * 7 X.1.1.,.C 9 9 0 5 5 * 5 5 5 5 5 5 5 8 5 6 6 5 6 6 6 6 6 < 5 @ u +.1.1.&.d q q 0 6 6 6 6 5 5 5 5 @ * * + ",
"& * * & & * * * & * * < X.2.1.,.D 9 0 8 * * * * * & & * * & & * 5 5 5 5 6 5 6 = * & @ 3 +.1.<.+.d q q 0 6 5 6 5 * * * & * * * & ",
"& * * & * * * & * * * < ` 1.1.=.S 0 8 0 * * * * * * * * * * * * 5 5 5 5 6 5 5 5 & & & 3  .1.1.+.d 0 q 0 5 5 5 6 * * * * * * * & ",
"* * * * & * * * * * * < X.2.1.-.S 6 0 8 = * * & * & * & & * * * * 5 = 5 5 5 6 5 & & & 3 +.1.1.%.d q q 0 6 5 5 5 * * * & * * * & ",
"5 5 5 5 * * * * * 5 5 7 %.6.7.6.S 9 0 0 5 & * * . . . o & & @ & & % O & 5 5 5 5 * * & 3 +.1.1.+.d q q 0 * * * = 5 5 5 5 * * * @ ",
"8 5 6 6 * * * * = 5 5 8 O.8.7.6.F 0 0 0 5 * * & .       & & , @ X o o O * * * = * & * r +.1.2.&.d 0 q 0 * * * * 5 5 5 5 * & & & ",
"5 5 7 5 * & & * 5 6 6 7 &.8.7.6.P q q q * & * &         & & @ @ X $ O % * 5 * = * * * 2 +.1.4.%.d q 0 0 5 * * * 5 5 5 * * @ * & ",
"e e e e w 2 2 2 w e 7 u &.6.8.6.F a a d w 2 2 = - - - - 2 2 3 2 ; % o % = = 5 6 = * * u %.1.4.-.g q t q = * * * 5 5 5 5 < < * , ",
"^ ` ` ^ / _ ^ / ~ ~ ~ / ;.5.5.5.{ ` ( ` ` ( / ( / / R / / / ( ( / ~ T T W W W W T Q T Q -.5.5.;.^ ! ! ! Q Q Q Q W W W W W W W T ",
" . . . . . . . .{ [ | [ <.5.5.5.#. .{  .#.{  .|  ... . . . . . . . . . . . . . .#.#.#.#.5.5.5.5... .....$.$.$.$. . .|  . . . .} ",
"[  . . . .|  . .[ ' [ [ 1.5.5.5.%.{ {  . .{  . .{  . . . . . . . . . . . .{  . .#.#.#.#.4.8.5.>... .}  .$.$.$...} |  .{  . . .} ",
"_ ] ] ` ] ] ] ] ] ` _ _ =.;.;.=.{ ] ] ] ] ] ] ] ` ] ] ] {  . . .] ] ] ] ] ] ] ] ) ' _ ' ;.-.;.;.] }  . . .$. . . .} [ [  . . .} ",
"f C d C C C d d Z Z Z A d Z C C g f g g g g g d s s s D +.,.,.+.V s s V A A A A g g g g g C C C V V V V F F F V F F V J 2.2.2.,.",
"0 q q q q h h q h j h j q q q q 0 0 q 0 q q 0 q 9 6 6 p +.,.1.+.s 9 9 0 c n n n q q 0 q q q q 0 9 9 0 0 q q t q q q h C 6.9.8.6.",
"q q q q q q h y j j j j q q q q q q q q q q q q 9 9 9 p +.,.,.+.s 9 8 0 c z n z q q q q q q q q 0 0 0 0 q q q q q q q Y 6.7.7.6.",
"0 q q q q 0 q y q h h q q 0 0 9 0 q q 0 0 0 0 0 9 6 6 i +.2.,.+.s 9 0 0 z n n z q q 0 0 q 0 q 0 9 0 9 0 0 0 0 q q q q C 6.8.7.6.",
"8 q q q 5 < < @ * * * < @ < 5 @ * 5 * 5 5 * 5 * % X & 1 o.<.1.o.d 0 q 0 7 5 < < * * 5 5 = 5 * * @ 5 5 @ 5 5 5 5 5 5 5 N 3.2.2.1.",
"8 q q q 5 @ @ @ & & * & * * & @ * & * * * & * * & . $ ;  .1.1.+.d 0 0 0 * & @ @ * * & * & * * * & @ < & @ @ @ @ = * * N ,.6.2.1.",
"8 q q q 5 & & < * # & & @ @ < @ * * * * * * * & X . . ; +.<.1.+.d 0 y 0 * & & & * * * * * * * * & @ & @ @ @ @ @ * * * N ;.1.2.-.",
"8 q q q 5 @ & & * * @ < & < & @ * & * & * * * & % . % , +.<.1.+.d q q 0 * & & & * * & * * & * & < @ < @ @ < @ < * 5 * M ;.2.5.<.",
"9 q q q @ X X X * 5 5 5 5 @ & * & * * & * * * * * & + 2 o.2.2.&.d q 0 0 * * * * * * * * * * * * 5 * 5 * * & * * * 5 @ B 1.2.1.<.",
"9 0 q y & o o o & 5 5 5 @ * & * * * * * & * * & * * * < X.2.2.&.d q q 0 * * & * & * * & * & * * = 5 * * * * * * * * @ N 1.2.5.<.",
"8 q q 0 * o . X & 5 5 5 @ & * @ & * * * * * * * @ * @ < X.2.2.&.d q 0 0 * & * @ * @ @ + * * + * * 5 * 5 * * * @ 5 * @ M 1.1.4.-.",
"N C V C m 4 > : r r r r r 3 3 r 3 3 3 3 2 3 2 3 3 3 2 m o.2.5.=.C d d p r 3 3 3 3 3 3 3 3 3 3 r 7 7 7 2 < < = 2 2 7 7 B ;.4.4.<.",
"_ } ] { } } _ ) ) _ ) ) } ] _ ] _ _ _ _ _ ' ' ] _ _ _ ] -.5.5.1.X.[ ] ` ] ( _ _ _ _ _ ' ] _ ] ` ( ~ ^ ~ ! ~ ~ ~ ~ ~ ~ _ <.1.1.*.",
"'  . .| | .... .[ [ [ | } ......#. . . .#.#.#. . . . . .4.5.5.4.%.+. .+.|  . . . . .|  . . .{  .#.#.#.#. . .|  . . . .%.1.1.<.,.",
"_  . . .|  . .| [ [ | |  .....|  . . . .#.#. .#. . . . .<.5.5.5... . . . . . . .| |  .| {  . . . . . . . . . . . . . . .<.1.1.,.",
")  . . .|  . .[ ' ' ) } } | | | [ [ [ [ [ [ | | | [ } | ,.4.1.1. .|  . .{ |  . .| | | [  . . .{  .#. .+. .{  . . . . .$.<.1.<.*."
};
