/* XPM */
static char *_6a60d84d1004a62b237317d2760be25zcQlSGPintmM911U[] = {
/* columns rows colors chars-per-pixel */
"64 64 235 2 ",
"   c #4D3E1E",
".  c #543B1D",
"X  c #5A3B1E",
"o  c #55371B",
"O  c #4D3D23",
"+  c #4A3E27",
"@  c #553D24",
"#  c #5A3D24",
"$  c #553D2A",
"%  c #5A3E2A",
"&  c #5B3F32",
"*  c #573F33",
"=  c #613F24",
"-  c #4B431C",
";  c #484817",
":  c #54431D",
">  c #4A591C",
",  c #50631E",
"<  c #4C4427",
"1  c #534124",
"2  c #5C4125",
"3  c #55412A",
"4  c #5C412A",
"5  c #524C26",
"6  c #4D5224",
"7  c #4B5725",
"8  c #535423",
"9  c #595426",
"0  c #545428",
"q  c #59562B",
"w  c #545B29",
"e  c #5B5B2C",
"r  c #565C24",
"t  c #5A4637",
"y  c #5A5A37",
"u  c #624226",
"i  c #62442B",
"p  c #69462B",
"a  c #654A2D",
"s  c #6A4B2E",
"d  c #67552D",
"f  c #78522E",
"g  c #634632",
"h  c #654A32",
"j  c #6B4D33",
"k  c #6B4F39",
"l  c #624F3D",
"z  c #724F32",
"x  c #6D5135",
"c  c #6E533B",
"v  c #685833",
"b  c #755335",
"n  c #7A5535",
"m  c #7C5836",
"M  c #75553B",
"N  c #79563A",
"B  c #76593C",
"V  c #7B593C",
"C  c #765937",
"Z  c #774F2C",
"A  c #576528",
"S  c #537529",
"D  c #5C6332",
"F  c #5A6938",
"G  c #566B2D",
"H  c #656736",
"J  c #657033",
"K  c #5C4F43",
"L  c #6B5848",
"P  c #745641",
"I  c #755A42",
"U  c #7C5C41",
"Y  c #785947",
"T  c #735F51",
"R  c #645649",
"E  c #646647",
"W  c #79604B",
"Q  c #6B6458",
"!  c #786759",
"~  c #6D6B68",
"^  c #736B63",
"/  c #776E68",
"(  c #78716A",
")  c #835D3D",
"_  c #845937",
"`  c #85613E",
"'  c #8B623E",
"]  c #97693E",
"[  c #835E42",
"{  c #856244",
"}  c #8A6443",
"|  c #8C6946",
" . c #856549",
".. c #8A6549",
"X. c #8D6A4C",
"o. c #846A48",
"O. c #916645",
"+. c #956C45",
"@. c #9A6C46",
"#. c #946D4B",
"$. c #996D4B",
"%. c #90674B",
"&. c #95704D",
"*. c #9B714C",
"=. c #9D7047",
"-. c #8D6C51",
";. c #896C57",
":. c #936E51",
">. c #8E7053",
",. c #8C715A",
"<. c #86715B",
"1. c #947152",
"2. c #9B7352",
"3. c #9E7B59",
"4. c #A27753",
"5. c #A47B55",
"6. c #AA7D54",
"7. c #A47C5A",
"8. c #AB7E5A",
"9. c #A7784E",
"0. c #816E63",
"q. c #89786A",
"w. c #917D6D",
"e. c #8B7D70",
"r. c #4D8E21",
"t. c #538A26",
"y. c #4B9123",
"u. c #519225",
"i. c #58992B",
"p. c #5C9D34",
"a. c #5D9E39",
"s. c #579832",
"d. c #5F8635",
"f. c #648A3A",
"g. c #649E3B",
"h. c #6B9B3E",
"j. c #639836",
"k. c #63872D",
"l. c #5CA02D",
"z. c #5DA335",
"x. c #5DA439",
"c. c #5EAC3B",
"v. c #57A538",
"b. c #62A335",
"n. c #64A936",
"m. c #64A43B",
"M. c #6AA53D",
"N. c #64AA3C",
"B. c #6AAB3C",
"V. c #69AB37",
"C. c #6BB13E",
"Z. c #66B13C",
"A. c #71B43F",
"S. c #6A8B44",
"D. c #6B9542",
"F. c #6B9D43",
"G. c #699A45",
"H. c #719C44",
"J. c #77994A",
"K. c #7C9B52",
"L. c #6CA443",
"P. c #65AD41",
"I. c #6BAC42",
"U. c #67A843",
"Y. c #72AC45",
"T. c #76A44B",
"R. c #7AA44D",
"E. c #74AC4C",
"W. c #7BAC4C",
"Q. c #73A745",
"!. c #64B142",
"~. c #6CB142",
"^. c #6EB84E",
"/. c #6FB449",
"(. c #72B445",
"). c #74B44B",
"_. c #7BB34D",
"`. c #75B84C",
"'. c #7DBE4E",
"]. c #76B844",
"[. c #7BA651",
"{. c #7BAB55",
"}. c #7EB453",
"|. c #7DBB52",
" X c #75B950",
".X c #78C253",
"XX c #7EC14E",
"oX c #849855",
"OX c #A5815D",
"+X c #AD825C",
"@X c #AC8358",
"#X c #B4865D",
"$X c #B4895E",
"%X c #B9895C",
"&X c #B68658",
"*X c #81B44F",
"=X c #84A859",
"-X c #82B555",
";X c #83BB55",
":X c #85BD5A",
">X c #8ABD5D",
",X c #88B959",
"<X c #82A64F",
"1X c #8C827B",
"2X c #8E8077",
"3X c #918378",
"4X c #AD8562",
"5X c #AE8963",
"6X c #AC8968",
"7X c #B28661",
"8X c #B48964",
"9X c #B98962",
"0X c #B38C6B",
"qX c #B28E70",
"wX c #B7916C",
"eX c #8EBD62",
"rX c #8AB462",
"tX c #96BA68",
"yX c #99B170",
"uX c #A2BE74",
"iX c #8BC25E",
"pX c #82C157",
"aX c #90C25F",
"sX c #8CC461",
"dX c #8DCA66",
"fX c #92C464",
"gX c #97C96C",
"hX c #93D06B",
"jX c #9CD174",
"kX c #99C671",
"lX c #A3C677",
"zX c #8D8784",
"xX c #89888A",
"cX c #928681",
"vX c #918883",
/* pixels */
"A.A./.^.^.`.`.^.)./.(.(.V.c.n.c.c.c.m.m.B.C.Y.B.z.x.p.z.Z.Z.B.(.;X'.*XXXA.].'.(.B.B.I.B.U.N.n.B.I.I.L.M.v.v.b.i.r.u.y.l.I.B.~.!.",
"].]./.].).). X).`.(.).).V.n.n.n.c.N.B.N.C.C.A.(.x.x.a.x.P.Z.B.Y.|.'.XX'.A.].`.).U.P.I.U.m.m.n.n.N.M.M.M.z.z.n.p.u.u.y.z./.I.~.!.",
"(.(.(.)._._._.`.)./.)./.N.m.m.m.M.m.b.n.C.].C.I.z.z.a.g.I.~.I.~..X.X.X.X|. X`.`.c.!.!.c.N.N.N.N.V.N.B.n.z.z.b.i.t.u.r.p.~.C.~.Z.",
"`.).)._._.].).]._.Y. X/.U.U.L.L.M.M.b.I.Q.<XT._.a.z.g.g.U.!.I.~..X.X.X`. XE.).Y.P.P.!.P.P.m.U.N.V.n.N.n.x.b.z.p.u.u.u.l.C.C.!.Z.",
"^.^.`./.C.C.(.Y.*X-X-X-X XE.E.E._.W.W.[.G A F G G.m.M.n.m.x.m.U.B.m.I.I.:X:X>X>X|.|.-X_.Y.Y./.I.m.m.x.N.N.c.N.x.p.p.p.m.I.P.I.!.",
"^.^.`./.~.C.C.I.*X,X>X,X}.{.}.}.*X*X-X=X0 + < 6 F.U.B.n.x.v.z.b.j.j.g.U.sXsXfXfXfXsXsX,X*XE.).I.z.x.m.N.P.P.~.P.P.P.U.I.I.P.I.I.",
").).`.(.~.C.I.I.'.:X:X;X-X_._._.*X*X}.=X0 + + 6 F.N.V.n.x.x.v.z.x.p.z.U.iXdXsXiXiXpXpX;X(.Y.).U.b.j.x.n.B.!.I.N.N.m.B.I.I.I.I.Y.",
").`.`.).W.T.R.W.-X;X:X-X-X-X}._._.}._.=Xw 3 + 6 F.M.V.B.L.G.M.m.x.z.x.N.dXiXiXiXiXeXsX;X_._.).E.h.h.h.M.I.P.N.C.N.m.M.L.T.R.R.T.",
":X:X,XtXJ w w 7 =XgXhXdXE.L.U.I.I.E.E.R.9 1 O 6 T.Y.Y.L.A w r G E.I.I./.pXpXpX:XfX>XfXsXsXpXdXQ.> r r S a.z.l.l.b.p.L.d., w w D ",
"eXeXeXtXJ - < ; =XjXgXhXE.F.m.m.I.I.M.J.6 1 @ 6 H.Y.E.J.; < < 7 [.).`.)..X|.:XpXaXfXtXeXgXfXgXJ.; < - A f.s.u.i.n.j.F.S ; ; O + ",
":X:XeXtXE ; < 7 oXlXjXhXY.j.m.x.c.c.N.H.6 1 @ 6 J._._.[.; < @ 9 {.^.).`.pX:X:X>X>XfXfXfXkXkXgXJ.- + O A D.a.i.l.l.j.M.S ; @ & t ",
"tXtXtXyXE < < < yXlXlXgX=XH.H.m.N.!.U.H.8 1 @ 5 oX<X[.K.0 3 1 8 {.).]._.-X,XrXeXfXfXeXkXuXuXuXoXO @ 1 q f.S.f.j.h.h.D.A : # # % ",
"v e e F E Q Q Q F D H H e e 8 , F.E./.[.8 @ & 3 d r D q 3 @ - > F.m.g.j.A r A J <X_.-XH.D D H v v x x d q w 0 8 9 q e d a x b x ",
"1 1 1 3 Q ~ ~ ~ t     @ O 1 o ; J.W.E.[.8 @ $ * :   1 O & $ : > j.g.j.k.; ; - r R.M.I.d.; : o u N C B j . < 1 @ 1 @ @ h M N B C ",
"3 3 @ O R ( ~ / t 4 2 3 3 4 : : J.T./.W.8 1 3 3 2 # @ # & & @ 6 D.m.g.f.; : 1 e T.I.).S.- $ $ g B v B j @ 1 3 3 3 @ @ j B C C C ",
"3 4 # @ T ! ^ ^ g = u 4 3 1 u : J.=X[.K.9 : 4 3 2 @ # % % & $ 5 S.D.D.f.: 2 2 D [.R.{.S.< * * g I C C j 2 2 3 4 @ 4 @ h B M C C ",
"{ } } | Y B L I [ | } [ 7.3.7.3.d 9 r 9 ` o.} { M k k M k M c v 0 0 8 9 1 @ @ 4 y 7 w y Q Q Q T M n n V  . .-.c @ 2 @ j V B N C ",
"#.#.+.*.W C B M | *.@.@.4X7X8X7Xa 1 1 1 | *.#.#.I N N M N M M c @ @ . 1 # # @ @ O + < t ^ ^ ~ Q I N N } :.1.>.M # 4 @ a B M C b ",
"*.&.*.1.W P P M | $.@.$.8.0X7X4Xs 1 1 2  .&.#.+.U P M N n N N M 3 3 1 1 2 2 % $ 3 3 $ K ^ / ^ T B b n { 1.1.>.M X # # p N n n m ",
"X.#.| X.U c P B } #.$.$.4X7X7X7Xa 1 2 4 { #.#.#.M B M M M z M c 3 3 @ # % 4 & = @ 1 * K T ^ ^ ! P M C [ X.>.X.V # = X z V m n n ",
"m V N U a 3 3 4  .#.$.@.*.*.$.$.N x M b X.#.$.+.p % 4 4 i 4 4 4 3 3 4 i k c c M M c c l t t * t c C M M V V U b z b b X.4X4X4X8.",
"V N n V a 3 % @ { #.#.#.#.#.$.#.m M B M +.#.#.| u % % % # 4 % @ % % # 4 M P P P b C P v * * * g P B V M C C V N N n M 1.8X8X7X7X",
"M N N V i 3 $ % { #.#.1.X.#.O.#.W C I N :.$.$...% @ $ % # @ % @ # X X 2 M Y P N n C M j = % # a B B B M C n N N N N n :.0X7X0X9X",
"m ) m V a % 3 % W 1.O.:.-.-.#.-.U L T P ;.:.:...i % % i = u i u u p u p N N N N _ _ m n = p = s B B M M U V m N N C n #.4X4X#X7X",
"4X4X+X6XM @ 3 @ b V V V U N N Y q.1X2X2XT Y V N P M M N 8.8.7.4XOXOXOXOXM N N } +X@X+X#X4X4X4X1.N N N [ :.X.:.{ n n C ` *.&.+.*.",
"$X7X7X8XN # @ 4 z N n N P M N P q.zXzX3XT P N N c P N _ 7X#X9X8X0X8X5XOXN N z } 8X$X$X$X7X0X8X3.N Y N [ :.X.:.[ b n b ` &.+.+.+.",
"9X%X8X7Xn X # @ z n n n n M N P 2X3X1X3XT P M N P M M _ #X9X9X8X9X7X5XOXn N n [ $X$X$X$X#X9X4X4.N N N [ :.:.1.} n C n } &.&.+.+.",
"#X%X$X8Xm = i i b ) _ _ [ V [ U w.3X3X3X[ P V N P M c ) 7.4X8.+X+X#X#XOXn N z ..+X@X&X@X8.7X4X2.z N n [ %.%.O.} n n n } +.+.&.&.",
"#X%X#X9X} z z z 4.4X4X4X4X4X4X4X>.-.,.,.X.X.%.#.n P N M ) m V [ #.@.$.| # = # j &.*.=.=.$.*.*.| _ N N N ) m V [ :.:.X.#.&.#.#.#.",
"#X%X#X8X+.N N C 4.9X#X9X0X7X7X7X2.>.-.>.#.*.@.+.N I I I N n M U @.@.#...= % # j #.+.+.@.@.#.#.{ M P z N b n n ) :.:.:.:.&.X.&.+.",
"9X9X#X9X} n b n 5.9X9X%X9X9X9X%X*.X.>.#.#.$.+.+.V M M M N n N N #.@.%.| = = % & 1.&.#.#.$.:.:...M P N N n N n } :.:.:.:.:.$.*.O.",
"8.#X8.9X} b N n 2.8.8.8.8.#X8.#X*.| #.X.@.@.+.+.N N M N b b M n %.%.%.%.& & & N X.#.#.O.:.....{ M N M N n n b [ .... ...#...#.#.",
"#.#.#.#.) n N n n m n n +.@.@.#.[ N N m | *.&.O.n N M N i # # u n N N P :.:.-.X.#.#.#.} m N M N N M M M [ n _ p = = 2 p m N N N ",
":.#.1.#.) n C N N N m N ..#.#.$.V N m m | +.&.#._ N P P # # # u n N N V $.:.-.#.:.$.+.O.N I N V N M P P P n Y p # # 1 a N m V I ",
"#.#.#.X.V n n C B M M B X.:.#.:.U n M V X.&.:.-.Y N P P i @ 2 2 n n n V -.#.:.-.1.%.$.%.n N N n n n V M M b V s % $ $ h M N N M ",
"$.#.*.#.' ) V W M c k x  .X.X.| N M M B { o...[ z k k k i i 4 i n N P U | #.-.-.:.%.%.[ M M M N ` ) { [ ` ) { x % % 4 x V ) V V ",
"$.#.#.*.+.X.X.X.a % # i c N N N I N N M g = % # % % # i c P P I n n N c V N N M M N N z M M N | 7X+X5X4X#X#X$X=.b B M  .#.#.#.>.",
"+.@.+.+.&.&.1.>.h # # @ k V M C n C M M = % % % % # @ # B N M c C C N M _ n N Y N _ N _ N M b %.8X7X8X$X$X&X%X] b N M  .:.#.&.>.",
"+.+.+.+.&.#.X.-.a # # = z N n m n n M M & = 4 @ # : X X M M N N N B P n _ _ _ Z n n n n M M M [ 8X9X7X$X&X&X&X=.b M M [ X.&.&.&.",
"&.&.#.#.X.&.&.:.b u i p V } [ [ ` ` }  .p i u u b s x Z V V [ U x v M z _ _ } [ ' O.[ ` N N _ } 9X8.+X6.@X@X&X+. .T T ;.-.| | ` ",
"+.&.&.X.+.&.X.&.U C M n 7.0X8X8X$X8X8X6X[ N z [ 4X6X6XOX&.&.:...% % $ s 0X8X$X7X0X8X8X3.N P z _ @.$.+.&.#.&.-.q.3XcXcX0.P N n n ",
"#.&.&.| &.X.&.>.) N N m 5.8X7X9X$X#X7X4X[ N N _ 4X6X5X4X&.&.$...% 4 % j 7X$X$X$X$X$X7X5.N N Y [ @.$.#.>.>.-.<.e.cXzXzX0.Y M n n ",
"+.X.X.&.&.&.&.>.V n n m 7.8X9X%X$X$X9X7X_ _ _ n 7X7X0X7X#.+.$...* * $ h +X$X$X+X8X7X8X5.N P N [ $.2.:.1.>.>.<.w.cXzXzX0.P P V n ",
">.#.&.&.| ` | ` N n n m 2.8.6.8.6.6.+X6.O.' ' [ 4.4.4.2.$.*.&.X.K K t P OX@X+X6.@X6.@X2.N N N ) [ [ U  .>.>.:.;.q.q.q.T k j c z ",
"#.$.:.%.` n C n N N m n | %.@.$.@.@.@.=.8.9X9X7X_ Z Z _ +.&.X.X.! ^ ! ! 2.+.@.@.+.+.*.} b C n b = X = z %.:.#.O.B P I a # # # # ",
":.:.2.:.` C C V M N b N } $.@.@.@.%.O.O.8.9X9X8._ n _ _ #.1.X.;.! ~ / ! :.O.$.$.&.| &.} M B C s = # # z 2.2.@.) n C C a X = % % ",
"$.%.$.$.[ n N N B M M I ..2.$.%.%.2.2.#.4X#X9X7X_ z N N -.:.-.,./ ~ ^ ! ,.:.1.%.1.:.:.} B C C s @ # $ k :.:.*.' b z C a X X $ $ ",
"O.[ | | N s z j B { U [ [ ......:.%.2.+.6.8.8.7.$.} %. .-. .[  .! Q Q W  .......} ..| ) M M V x i i g c | } O.' | | | ` n N P P ",
"n n n C = % % # [ #.&.#.m C M N | &.O.$.@.@.O.&.7X8X0X5XI M N n N M B I P c B V n b m n n n C M B B P C n n Z $.0X7X7X9X7X9X8X8X",
"n C V B g # % = [ #.#.#.) N M M X.1.1.$.+.$.$.:.4X7X8X@XP M n _ _ n M M B P P M C n f f C N C M M M B B n m Z @.0X8X9X9X#X#X%X9X",
"C M B M i # # # [ #.*.#.[ n P P -.-.:.#.$.$.:.1.#X$X$X+XU N n _ n n M M P I I N C n m n n V C I C M B b z n Z 2.8X7X7X7X9X#X9X#X",
"B B M M M z n z [ } } { N M N P U [ I V [ ....} OX9.@X5.[ [ [ _ m N M x k k h b X.| #.` s s j k N N C ) $.%.O.$.8.8.8.5.5.5.7.5.",
"M M M N { 1.1.$.m n C b N I N P @ @ # i z M N N ] ] ] =.+.1.:.#.N N N b % # # z qX6X0X1.= X # % N N b #.0X8X8X8.+.+.+.+.#.#.*.+.",
"I B M C } 2.:.$.) n N M V M M M # @ % i M M V N #.] ] +.X.&.:...N N M M # # X z 0X6XqX1.X X % a N m b O.0X4X8X7.+.#.#.&.#.#.&.#.",
"x C C n } $.@.:.V C V C M b n n # $ % 4 c P I ) X.@.=.+.&.1.1.-.N P M c # = X z qX0XqX1.# @ $ g N n n #.0X0X0X7.*.#.#.+.#.#.&.X.",
"{ } { ) [ [ ) | M a j j { #.#.#.b h k g l g k j V o.' ` m C B B P M M M u j p N :.1.1. .# 4 @ g V M N ) 1.*.#.:.#.#.#.#.>.#.#.#.",
"#.#.#.#._ n n M i @ . : 5.0X7X7X[ N M I 4 @ = # M N N z u X # 2 N N M I N N V N n b n s # % % g M N N z n Z z ) #.O.&.&.#.&.| &.",
"$.$.$.$.) N N M 4 # # 2 2.8X9X8X) n N M % # # 2 c P P z # X # 4 M M M N N N N m V N N b # # % g I M N M N m n } &.#.#.#.X.*.>.+.",
"@.@.#.$.) N P P 4 . o u 2.8X9X#X_ n n M = # # @ c L L R u # @ 4 M n M n b n n n n N N j = # # i M M M b N N m ) 2.1.1.#.#.&.&.&.",
"@.#.@.#.[ N M C o. .{ | 2.6.9.9.+.) [ { j s s k / 0.q.! I M C B  .[  .} { } { ) n M N M p h h M .. .{ { } { { { { ) { m C C C b ",
"@.$.#.&.[ M M N OX5XwX8X*.+.+.+.$.#.#.#.V C I I 3XvXvX3X,.1.-.>.&.&.&.#.O.#.&.X.N N B V M M B { 1.&.-.&.:.#.#. .n M n p # X X X ",
"#.#.X.1.[ M N n 3.8X$X$X*.$.#.$.:.:.$.#.V C B I w.zXxX1X,.&.&.>.X.X.*.&.#.*.#.X.V M M M M N M [ #.#.#.#.#.#.#.{ N N V j # # @ @ ",
"#.:.:.1.{ M n m 5.%X@X%X=.#.#.-.:.:.#.#.m N M Y 1XxXxX1X,.*.&.#.*.+.#.+.+.&.#.| V V M B M N n ) #.#.#.*.#.#.#.{ b N M h % % % 3 ",
"#.:.:.,.) n n f 9.%X&X%X*.&.-.-.:.#.#.&.V N M I 1XxXxX1X>.&.+.+.| &.*.#.| &.X.-.M M M C M N n ) @.#.@.#.+.#.2.{ N M B h $ 3 $ $ "
};
