/* XPM */
static char *aba9517d27e246fd8579315f14ded2e88dTneCTtAEvJbsGB[] = {
/* columns rows colors chars-per-pixel */
"64 64 241 2 ",
"   c #7E4E2E",
".  c #7D4F31",
"X  c #7E5234",
"o  c #7E543A",
"O  c #7D5C44",
"+  c #7D5744",
"@  c #7D614A",
"#  c #7F756B",
"$  c #7E7771",
"%  c #7D7B74",
"&  c #9A2A25",
"*  c #993025",
"=  c #8C3B33",
"-  c #933A38",
";  c #8C3B2E",
":  c #BB3D3A",
">  c #C13B38",
",  c #824E2D",
"<  c #894D29",
"1  c #85522D",
"2  c #8A522D",
"3  c #8D552C",
"4  c #94552C",
"5  c #814E33",
"6  c #8F4039",
"7  c #845334",
"8  c #8A5533",
"9  c #8B5935",
"0  c #83553A",
"q  c #895739",
"w  c #85593D",
"e  c #8B5B3B",
"r  c #865836",
"t  c #935B35",
"y  c #9A5D36",
"u  c #935E3B",
"i  c #9A5F39",
"p  c #95613D",
"a  c #9B623C",
"s  c #9E6035",
"d  c #8D613E",
"f  c #A2633B",
"g  c #A5643A",
"h  c #8A4A44",
"j  c #954C4B",
"k  c #855B42",
"l  c #8A5D41",
"z  c #835F4C",
"x  c #975A45",
"c  c #9A5D5B",
"v  c #985C57",
"b  c #AC4946",
"n  c #A4544A",
"m  c #A45656",
"M  c #B04745",
"N  c #8B6348",
"B  c #946241",
"V  c #996544",
"C  c #9C6F4F",
"Z  c #9F714F",
"A  c #986459",
"S  c #8E615E",
"D  c #AD6E49",
"F  c #A66A45",
"G  c #AD734D",
"H  c #AD784E",
"J  c #B2744B",
"K  c #BA764B",
"L  c #BC7A4D",
"P  c #B5774A",
"I  c #AC7552",
"U  c #AE7954",
"Y  c #AB7C5B",
"T  c #A47758",
"R  c #B27751",
"E  c #B37A53",
"W  c #BC7C53",
"Q  c #B37C5A",
"!  c #BB7D58",
"~  c #B06F47",
"^  c #9C5C62",
"/  c #966865",
"(  c #857669",
")  c #83796C",
"_  c #8A7768",
"`  c #807673",
"'  c #827A74",
"]  c #857C79",
"[  c #8A7C75",
"{  c #937A68",
"}  c #AA7D63",
"|  c #C57D4D",
" . c #CA7D4C",
".. c #C87C47",
"X. c #C47E51",
"o. c #C97D51",
"O. c #C37F58",
"+. c #5A863C",
"@. c #648439",
"#. c #69854B",
"$. c #6D8653",
"%. c #738E63",
"&. c #B9863D",
"*. c #AD875A",
"=. c #BE8053",
"-. c #BD835B",
";. c #B48A55",
":. c #BC8547",
">. c #9D8D7E",
",. c #AD8264",
"<. c #AB856C",
"1. c #AA886B",
"2. c #B28565",
"3. c #BB8664",
"4. c #BE8A63",
"5. c #B3856B",
"6. c #B58B6D",
"7. c #BA8C6C",
"8. c #B38A64",
"9. c #AB8B73",
"0. c #AD8D7B",
"q. c #A78874",
"w. c #B58D72",
"e. c #B98D73",
"r. c #B28C79",
"t. c #AE917B",
"y. c #AE9074",
"u. c #B49174",
"i. c #B99075",
"p. c #B2927B",
"a. c #BD9479",
"s. c #B8916A",
"d. c #C6804E",
"f. c #CB814D",
"g. c #C48153",
"h. c #C98152",
"j. c #C2845A",
"k. c #CA8A5E",
"l. c #C7875B",
"z. c #C48B64",
"x. c #CB8C63",
"c. c #C38D6B",
"v. c #CA8E69",
"b. c #C28660",
"n. c #C4926C",
"m. c #CA926A",
"M. c #C28F71",
"N. c #C59373",
"B. c #CA9674",
"V. c #CA9875",
"C. c #C5997D",
"Z. c #CC9A7C",
"A. c #C69679",
"S. c #D08F67",
"D. c #95928E",
"F. c #98958E",
"G. c #9A9693",
"H. c #9D8F82",
"J. c #A59488",
"K. c #B49581",
"L. c #A89E98",
"P. c #A6A19D",
"I. c #AAA19D",
"U. c #ACAD9D",
"Y. c #B4A59A",
"T. c #BBA99B",
"R. c #B8B39B",
"E. c #ACB49B",
"W. c #ADA8A3",
"Q. c #BCA5A4",
"!. c #B1AAA4",
"~. c #BCABA5",
"^. c #B5AEAA",
"/. c #BBADAB",
"(. c #B6A4A4",
"). c #ADB3A5",
"_. c #ADB2AC",
"`. c #B5B4AD",
"'. c #BBB4AD",
"]. c #B9B6AA",
"[. c #BCAEB2",
"{. c #B5B4B2",
"}. c #BBB4B3",
"|. c #B7B8B1",
" X c #BBB9B2",
".X c #BCB5B9",
"XX c #B9B6BA",
"oX c #C69C83",
"OX c #CA9E84",
"+X c #C99F88",
"@X c #CE9E8D",
"#X c #CCA186",
"$X c #CDA38A",
"%X c #C7A287",
"&X c #D1A58C",
"*X c #D3A98E",
"=X c #D2A386",
"-X c #C6A79B",
";X c #D4A991",
":X c #D4A39F",
">X c #C2B298",
",X c #C4A4A3",
"<X c #C3AAA4",
"1X c #C3ACAB",
"2X c #C9A6A7",
"3X c #D3A4A2",
"4X c #C2B3AC",
"5X c #C9BAAA",
"6X c #C1ADB8",
"7X c #C2B3B3",
"8X c #C1B3BA",
"9X c #C3BAB4",
"0X c #D4BFB9",
"qX c #D0BEAA",
"wX c #C99FA3",
"eX c #CDC3B3",
"rX c #CEC6BD",
"tX c #CAC9BE",
"yX c #C6C7BC",
"uX c #D2C4BB",
"iX c #D4CABC",
"pX c #D6C7B9",
"aX c #DBD5BD",
"sX c #E0CABF",
"dX c #CCC6C2",
"fX c #CCCBC3",
"gX c #D3CDC4",
"hX c #D9CDC3",
"jX c #D6CCC9",
"kX c #DACECB",
"lX c #D9C4C0",
"zX c #D4D1C4",
"xX c #DCD2C3",
"cX c #D6D2CC",
"vX c #DAD3CD",
"bX c #DCDACC",
"nX c #DBD4D1",
"mX c #CED0C3",
"MX c #E1C9C1",
"NX c #E0D3C8",
"BX c #E0D6D1",
/* pixels */
"| d.f.| h.X.o.W s f B u q 7 X k %X$X;XOXk . 8 8 I R P K K ..f... . .| | | | X.L f y a p 7 0 o k oX$X*X#Xr X r 8 E R K K |  . ...",
"d...| | X.X.O.W g x u B 7 7 X 0 %X$X&XOXw 7 7 8 R E K | | ...... . .| | | g.X.X.f t a B 5 w o k +X$X#X#Xo r r 1 H E W L |  . . .",
"| | d.| h.g.l.=.f a p V   X X o oX$X$XOX0 . . 7 G I E K | |  .| | | | | | g.g.W a y V V   5 o 0 C.$X=X#Xo X   1 U E ! L X.|  . .",
"d.| g.d.L L W E i x p u w w w N +X;X;XoXN w 7 q U E R P W | | ..f.h.g.h.L W =.! a a x e w l k k %X*X=X%Xd w r d I I J J X.o.o. .",
"| | X.L g g F a 8 1 5 l A.#XOX#X$X+X&X$XOXZ.OXZ.7 8 2 4 J K L | | | | L g f a a 8 7 7 l A.OXOX+X$X%X$X*XC.C.#XZ.e 8 2 4 ~ K K K ",
"o.X.o.W f a p p 1 7 . 7 $X*X&X&X;X$X&X$X;X*X;XOXq 7 < 2 J W K K | X.g.=.f y a p 7 5 5 0 =X;X=X;X*X#X$X#X*X*X*X#Xq 5 , 2 R ! W E ",
"o.X.O.! a p V p 7 7 7 k OX$X=X$X+X&X;X$X&X=XOXOXq 7 , 8 E E W W L X.g.W y a B B 5 0 o l +X&XOX&X*X$X*X$X%X%X#XZ.e 7 5 1 Q E E R ",
"! W W E a a p d w o 0 z oX;X&X+X$X&X$X@X&X;X$X$Xl w 8 q Y I I J W L W =.u B B N k k o k +X;X+X$X#X*X#X*X$X*X*X%Xl w q 7 Q Y I Q ",
"y f a a r 1 X w a.$X%X%X%X*X$X*X$X=X$X$X$X$X$X$XOXOX=XZ.8 7 8 2 a s a a 1 7 r k oX%X$X%X+X$X&X$X$X%X$X$X$X$X$X$XoX#XZ.C.u 7 8 8 ",
"a a u B 1 r X w %X*X*X$X*X*X$X$X&X&X$X&X&X&X$X-X&X&X=X#Xq 8 7 2 s y t a 1 r X o %X%X-X$X$X;X&X&X*X$X$X$X$X-X&X&X$X$X&XOXq 7 8 7 ",
"p a B V   X X o %X$X%X$X$X*X&X$X$X=X$X&X$X$X$X$XOX&X&X#X7 5 1 7 p a p V 7 X X k %X$X&X$X$X&X&X=X=X%X$X$X$X$X$X%X$X+X&X=X7   7 5 ",
"B B p d d w k k %X*X*X*X#X$X&X&X=X#X$X#X$X$X$X$X#X&X&XC.l 7 7 r d p d d w 0 o k +X$X$X+X+X@X&X+X%X=X$X$X$X%X$X$X$X=X&XC.x q q 8 ",
"7 X 7 e A.OXoX%X%X$X$X$Xe.u.w.7.e.e.e.i.u.r.e.u.i.w.e.w.} Y 2.Y r 1 X w 8.6.u.6.9.e.e.e.e.r.e.e.u.7.u.u.r.e.w.w.=X=X@X=Xi.N.N.N.",
"7 X X o $X&X$X;X;X;X&X$Xe.6.6.w.6.6.6.w.w.w.w.w.i.w.w.5.2.2.2.T w X X o u.u.i.6.r.e.w.w.w.w.w.e.s.u.u.6.w.w.r.e.@X&XZ.=XZ.Z.B.Z.",
"X X X w OX$X$X$X+X+X=X$Xe.6.e.7.w.6.w.w.w.w.9.u.w.e.i.5.,.Y Q } X X X X 5.6.u.w.w.w.w.e.e.e.w.w.w.w.6.u.w.w.w.w.+X&X@X=XB.Z.B.B.",
"r X X N oX$X+XoX;X$X&X&Xe.6.7.6.u.u.p.p.p.p.K.t.t.p.p.y.9.9.<.9.N @ O @ y.p.y.t.0.u.p.p.r.r.r.p.p.y.t.u.e.e.e.e.=X=X&X=XN.c.B.B.",
"z.z.c.3.l 0 w k %X$X;X%Xw.e.i.u.aXaXaXNXiXxXhXxXhXhXhXhXxXiXhXMXlXlXpXpXeXeXeXuXeXeXeXuXuXeXeXeXeXeXeXeXu.7.6.7.N.Z.A.M.l 7 r w ",
"x.x.z.4.r X X O OX$X+X$X6.e.6.y.aXbXbXBXNXnXcXnXBXkXvXvXbXvXnXnXcXkXhXgXmXtXtXfXrXrXdXyXrXtXtXyXtXfXtXeXu.7.7.e.B.V.Z.A.q X   7 ",
"k.S.x.l.3 7 X w oX*X&X&Xw.i.6.p.aXbXbXBXkXnXnXnXBXBXxXbXnXnXnXcXjXcXgXgXfXtXuXrXuXuXuXrXuXrXyXtXfXfXtXeXu.5.w.w.B.B.N.N.r r 7 1 ",
"k.S.k.-.t 8 7 7 A.=XC.oXe.e.6.p.aXBXNXBXkXnXkXnXkXkXkXcXcXnXnXcXgXfXgXgXfXrXdXrXuXuXuXrXrXiXdXdXyXyXtXqXi.e.e.i.M.B.B.7.e 7 1 9 ",
"X.g.g.-.E E -.*.t q q x <.u.u.t.pXjXjXjX8X}. X X|.|.|.|. X X X7X.X X}.}.|.`.`.'.'.`.`.}.[.{.{.{.W.W.^.Y.,.Y <.} e 8 7 e 3.n.z.-.",
"g.X.g.L -.=.W W < < , 5 5.w.u.t.hXzXvXjX}.{.{.{.`.`.`._.`.`././.}.[.}.`.`.{.`.{. X}.}.{.{.XX{.{.W.W.!.Y.9.,.9.} 7 8 8 2 7.4.z.z.",
"X.X.d.X.d.g.g.W < 4 2 9 7.w.0.K.iXfXjXjX{.{._._.}.'.].].'.'.4X4X7X'.1X'.{. X X}.'.`.`.{.XX.X|.`.W.W.^.Y.1.,.5.} 8 8 1 8 n.m.S.k.",
"| h.d.d.d.d.| L 4 4 < 9 5.w.1.t.gXgXkXjX|.|.|.|.<X<X<X<X].'.'.4X,X2X-X-X^.{.}.`.R.E.E.).}.{.|.`._.W.^.Y.<.} <.} q 8 3 t ;.k.k.l.",
"| | | | ..d.| d.L L W E q 0 o @ iXzXkXhX].`.|.~./ ^ ^ ^ 5X].~.<Xh = ; h Q..X.X!.$.$.#.$.'./.'.'.L.W.I.L.k 0 k k 3.b.z.b.-.O.| d.",
"o.|  .| d...d...| | j.Q r 7 o @ iXzXkXhX|.`.].<X^ m m ^ <X].].-X= * * - ,X[.XX).#.@.@.#.R.7X'.'.I.L.I.J.O   o 0 c.v.v.b.O.W | | ",
"o.| |  .| f. .f.| X.O.W 8 7 X @ pXhXkXhX|.`.`.<X^ ^ j ^ <X'.'.-X- & & = 2X.X{.).$.+.+.#.R.4X'.^.L.P.W.J.k   0 q z.v.S.x.g.W | d.",
"o.o.| |  ... .| | | O.Q 9 7 X @ iXvXkXjX|.`.'.<X/ ^ ^ / ~.4X'.<Xh - - h <X{.{.).$.#.#.%.W.'. X`.W.P.L.J.N 1 r r j.b.k.j.g.| | | ",
"o.o.| | | d.| | X.X.O.! u e e N iXcXcXcX X{.'.'./.,X<XY.4X'./.1X,X-X-XT. X}.}.'.].E.E.U.9X}.`._.D.D.G.J.T T Y U -.X.g.g.g.g.| | ",
"o.X.X.| | | | | o.| X.O.i p B N iXcXnXcX X`.}.'.[.}.4X'.'.`.}.}.}.}.`.}.^.}.'.'.4X'.4X`. X{. X{.G.D.D.H.*.U U H L X.X.X.X.g.| | ",
"X.o.X.| d.| d.| X.X.W W i u u N MXnXnXcX X[.7X'.}.].].}.7X}.}.`.}.'.{.}.'.4X4X'.}./.7X4X'.`.{.{.G.D.G.H.,.Y =.E | | | | X.o.| | ",
"o.o.| X.| d.d.X.W L W ! i u e N MXnXbXcX8X[.7X1XT.R.>X>X~.}.}.{.Q.<X~.~.7X4X].4X2XwX3X2X~.'.}.{.D.D.G.H.T H I R W X.g.X.| | |  .",
"X.| o.| X.| X.| s y F i 8 X w O uXnXzXfX6X6X1X>X*.;.;.8.>X'.}././ c c S 1X7X1X2Xm M M m 2X7X'.`.] $ $ # k 0 7 2 E E K K |  . ...",
"X.| | | | | | L g y i u 7 0 o + uXzXzXgX6X6X7X-X;.&.&.;.>X'.}.2Xc m m A 1X'.}.3XM > > M 3X1X'.`.>.$ % # + 5 1 1 R E R W | .. . .",
"| | g.X.X.X.l.O.y i B B 7 7 o O pXzXzXgX}.[.'.>X;.&.:.;.>X'.6X2Xm n j c ~.}.'.wXb : : b 3X4X].`.% $ % # + X 1 1 Y Q ! K | |  . .",
"g.| X.X.L L L E i i B e l w o @ pXzXzXfX}.}.].>X*.;.;.8.>X4X8X1X/ m A / ~. X4X3Xx b b n :X].`._.>.) # # N w r 1 I I I J | | o.o.",
"| | d.L g f f a 9 5 8 q 5.6.5.t.pXzXgXjX}.`.'.].E.R.>XR.4X4X7X1X<X-X<X!.}.'.].<X3X3X:X2X4X}.{.{.% % % ) 1.6.6.8.q 8 8 t J P K K ",
"d.X.g.W f y a p 8 5 0 0 6.e.e.r.pXzXzXgX}.`. X}.|.|.].].4X/.'.'.'.'. X'.'.'.4X4X4X/.[.7X/.{.XX{.% $ % [ 0.e.7.2.0 5 , 2 J W W K ",
"g.| g.-.a a V B 5 . 0 k 5.w.6.K.lXkXzXfX}.`.[..X}..X X X}.}.].].|.`.).'.'.4X4X'. X}.{.}..X.X.X^.% $ % ` 0.e.e.5.0 5 5 8 E E R R ",
"L L L E u x B l l k 0 k w.i.6.p.lXjXcXmX}.`.}.}.Q.<X2X1X1X'.].'.^.~.~.4X'.'.}.'.Q.~.~./..X}.}.}.] ] % ' 9.e.e.5.k k w 7 E I I Q ",
"s f s p 3 1 X l K.$X$X%Xu.w.w.r.uXdXtXyX`. X'.-Xh = = j -X}. X!.A c m / 6X.X}.Q./ m C A ~. X}./.] $ % ) 0.w.6.u.+XOX=XZ.8 8 q 8 ",
"s a p B 7 7 X w %X*X$X$Xu.u.w.p.uXdXtXyX`.'.'.-X; * & - wX}.{.~.A x m v 2X{.{./.v n n A ~.}.}./.] % % ) 0.w.u.s.@X&X;XOXq < 8 2 ",
"p a p V   . o 0 $X$X$X$Xu.w.w.0.0XlXtXyX`.}.'.-X= * & = 2X7X|.~./ j n c 2X.X.X/.v n x c Q.}.}.^.] ` % ) 0.e.6.u.@X$X;XoXq , 5 5 ",
"p p p B l k l k %X$X$X%Xe.w.w.t.0XdXfXyX}.}.'.<Xh - - j T.`.`././ v v / (..XXX/.A A A / Q..X7X/.[ % % ` 0.w.w.w.$X$X$XoXx q 8 q ",
"7 7 X l A.OXOXOX$X$X=X%Xu.w.w.p.0XdXfXdX}.}.}.1X,X,XwX,X}.|.'.'.~.1X<XT. X}.{.}.~.T.~.(.8X.X}.~.] $ % ) K.r.6.w.$X&X&X*X7.n.M.N.",
"o X . 0 +X&X&X&X$X$X$X$Xi.w.w.p.0XdXdXdX[.}.}.{.}.}.8X8X`.`.}.}.[.}.'.'.}.`.}.}. X}.9X}..X.X X'.[ $ % ) r.e.6.w.&X&X;X&XV.Z.Z.V.",
"o o o l OX=X=X&X#X=X$X#Xu.w.1.p.eXrXfXdX}.'.}.`.{.}.`.'.'.4X6X6X7X'.`.'.'.}.}.'. X^.}./.}.}.|.W.>.# % ( r.w.w.7.+X&X@XOXV.Z.V.B.",
"w 7 X l A.=X#XoX$X$X$X$Xi.6.w.p.eXtXdXdX`.`.`.`.`.}.`.).'.'.6X6X1X/./.`.`.`.`./.'.^./.'./.^.|.).$ $ ' ( 0.e.6.e.=X&X=X=XB.N.M.N.",
"4.4.7.s.q 7 w l oX%X&X%Xi.w.u.p.9XfXdXrX!.^.!.Y.I.I.I.L.J.G.G.G.] [ [ ] ] ] ] ] ] ` ` ] ] ] ] ] % $ ' ( 0.0.6.7.n.V.V.M.u w 0 k ",
"z.z.n.z.8 , 7 l +X$X+X+Xi.e.w.0.rXdXdXdX!.!.!.!.I.L.I.L.G.D.D.D.` ` ` ` ` ` ] % $ ] ] % $ % % ' % % [ ( t.0.7.7.N.V.B.N.7 5 . 0 ",
"z.z.x.4.8 1 7 w oX&X&X$Xw.w.w.K.uXmXmXfX_.^.W.!.L.W.W.L.G.D.D.G.] ] ' ' ] ' ] % $ % % $ % % % % ` ( ( _ 0.u.i.7.V.B.N.N.q 5 0 5 ",
"x.k.k.-.t 1 7 7 Z.OXOXoXi.w.w.p.qX9XrX9XY.Y.Y.I.L.J.L.H.J.H.H.H._ _ { _ ( ( _ ) _ ` ( # [ ] ) ( _ _ { { 9.u.6.5.M.B.B.z.x 8 5 q ",
"=.=.g.j.G E U Y q q w k 5.w.i.r.i.i.p.i.<.9.q.1.O + k k } } } } G G Z Z Z C C C 0 o o k 1.9.w.0.9.q.q.q.1.1.1.,.q 7 1 u 3.c.c.3.",
"d.d.:.=.K E E G 8   7 X w.w.e.5.5.3.5.7.} } 2.} 7 . 5 5 I Y Q I D ~ D D D F F F 2 5 7 q 3.e.e.w.u.u.u.w.1.1.,.,.7 7 7 1 z.b.z.v.",
"d.d.d.d.L W W E 1 2 7 q 6.w.e.e.e.e.M.e.5.5.<.,.k 0 5 q I Q Q Q J ~ G D D F F F 8 5 , q 5.e.i.w.w.7.6.6.,.,.,.,.0 7 , < x.S.v.x.",
"d.d...L L K L R 2 8 2 7 5.w.5.5.7.5.e.7.} } ,.*.q q 0 8 I Q ! E J ~ J ~ D D F F 4 8 8 q 5.6.6.1.6.7.s.7.,.,.,.Y w r 8 t j.k.k.l.",
" .|  .| | | =.=.J E Y T 8 7 w w N.V.N.s.d 1 1 d ;.4.4.-.=.=.W L | L | | | :.L =.P H H H r X r r n.m.n.n.d w 0 e 2.4.z.-.=.W g.| ",
" . ...| | | | L K W W U r 7 0 q n.N.V.n.1 1 1 3 z.z.m.l.=.=.d.| | | | | | d.d.| L P L H 3 X r r n.V.V.N.1   7 7 7.n.n.l.j.| | | ",
"| | |  .| | | d.K P W G 8 , 7 7 N.N.N.M.3 1 1 3 z.m.x.k.d.:.X.| | | | | | d.| =.K P R G 3   X 1 N.V.V.N.7 1 7 8 z.v.m.k.g.| | | ",
"|  . .| | | ..| K K W G 8 8 0 q N.N.N.3.d 1 1 3 -.l.l.l.o.| X.o.o.X.X.| |  .| d.K J W R 9 r r r s.N.V.4.e 1 1 t 4.b.k.l.X.| | | ",
"| X.| | f.| | | d.L =.W i i B x l 5 5 x ! v.x.x.g.g.j.X.X.o.o.o.o.o.o.o.|  . .o.| o.W ! F i V l 9 7   e 3.c.v.b.-.-.g.g.X.| | | ",
"X.o.o.| | ....f.f.d.g.W f a p B 5 5 8 8 M.b.x.x.g.g.o.o.o.o.o.o.o.o.o.o. . . . .g.X.O.W f x V B 7 0 7 7 c.c.b.b.O.X.| X.| g.o.| ",
"o.X.o.|  .| ..d.d.| d.W f i p p q 5 5 5 M.v.x.k.X.| | |  .o.| X.o.X.|  . ... ...d.| d.W i i V p 0 o X 7 c.v.x.k.| | o.| o.| o.| ",
"o.X.o.| | |  ...d.| g.W f i a B 0 0 7 q 3.v.k.k.W | | | | | o.X.X.| |  . . .......d.g.L f p a B o o 7 w 3.v.x.k.W X.| | | | o.o."
};
