/* XPM */
static char *_f5c49c4b52e40ea875cf352fab135ffnhWMoxG5RZNQIWpg[] = {
/* columns rows colors chars-per-pixel */
"64 64 73 1 ",
"  c #4B4B4B",
". c #4C4C4C",
"X c #4E4E4E",
"o c gray31",
"O c gray32",
"+ c gray33",
"@ c #565656",
"# c #565657",
"$ c gray34",
"% c #5A5A5A",
"& c #5B5B5B",
"* c #5C5C5D",
"= c gray37",
"- c #5F5F5F",
"; c #5F5F60",
": c #606060",
"> c #626261",
", c #616162",
"< c #646464",
"1 c gray40",
"2 c #666667",
"3 c #676768",
"4 c #69696A",
"5 c #6A6A6A",
"6 c gray42",
"7 c #6B6B6C",
"8 c #6D6D6D",
"9 c #6F6F70",
"0 c gray44",
"q c #717171",
"w c #747474",
"e c #767676",
"r c #767677",
"t c gray47",
"y c #7B7B7B",
"u c #7B7B7C",
"i c #7C7C7C",
"p c gray49",
"a c #80807F",
"s c #7F7F80",
"d c #818181",
"f c #838383",
"g c gray53",
"h c #878788",
"j c #888888",
"k c #8B8B8B",
"l c #8B8B8C",
"z c gray55",
"x c gray56",
"c c #929292",
"v c #939393",
"b c gray59",
"n c #979798",
"m c #989898",
"M c gray60",
"N c #9B9B9B",
"B c gray61",
"V c #9D9D9E",
"C c #A0A0A0",
"Z c #A2A2A2",
"A c gray65",
"S c gray66",
"D c #AAAAAA",
"F c #ACACAC",
"G c gray68",
"H c #AEAEAE",
"J c gray69",
"K c #B1B1B1",
"L c #B6B6B6",
"P c #B7B7B7",
"I c #BBBBBB",
"U c gray75",
"Y c #C1C1C1",
/* pixels */
"pppp2*;;*;;;VKKJHZDC4&::qqqeZDDAAZZZdppp<<<<+o++$&&&606yZAAAKKKH",
"pppy2;*;*;::VKJJHHDC6&::8q8yZADAZZZVdppy4<<:++o+$&&:666yZAZGKHKK",
"pppp2*;*;;;:VKJJGAHC2*::888yZDDDZZZVfppp2<<<++o+$&&&606tZAAZHKHK",
"pppy2*;;:::2VKJJGAZC2&*:qqqyZDAAZAZVfpay611<++++$&%:600yZAZHHHHH",
"gggg2*;;hnnnSGGFvxxk4224bVMMczzcDGGAzjzjgfff<&*:<::0cmmvjjggkkgk",
"jjjg4*;:MDDDFFFDxggf422qZDDAjjgkDKKGczxzkxxg42::<<:wCZZBddppaaaa",
"jjjg4*;:MDDDFDFFxggf6428ZDDAjggzGGKGczzzxxxg6::<<*<0ZZZBdppddpaa",
"jjjg4::2bDAADDDDxggf4<48VDAAzggjDGGDczzxkxkg4:<:<<:wCCZBddddpaap",
"4448gcxxhhgdhjzjgddy*@@:VDDAczczkkkjgdddjggd*%%%:<<2qq0yvvckgddd",
"***:xZZCdyeyppdppdpy@OO%VDDAbcccdppapdpdgggp&@@$<<<<:::8bbbbdgdg",
":*&:cZCCdyyypdpddppy@OO*ZDDAbcccdddadpdddgdd&@@%:<:<<<:qcbMvdgdg",
"*:::xVVVdpyyppdpppdy%OO%VAAAccclddpdpdppddgp%@@@<442<:*0cbbkdddp",
"**::8q0qkcccgpppeeeq%@@%djjjggdgjzzjddpy2:::%@@:xmmg<:<<0006:&:*",
"::*;:::<zVVMdpppeq88%@@%yapaddddzcczdppy%@@@%$%:BAAm<<:<:::&+OO+",
";;;;:2::xVVMgpppqqq8@@@%yddpddpgzczzdpdy&@@@$$$:BAAv<:<:<:::+O++",
";::;::22kMbbdyyye8q8%@@%ypapddddzzzzdppy*%%%&&%<BAZv2<<<:<<*@+++",
"llzj7;;;16<4:::*&&&&$$$$3324pddy<::::**2zbbczjlhgggfueuq2;:24624",
"MMMb7;;*$+++++$+$$+$$$$$*;*;pppy+oXo++@:ZGDDVNNMfaaadppy2::26006",
"MMMM7*;*$$$$$$++$$+$$$+$*;::ypde@oo+++@*VDDAVMMnddaasspp:2:<8800",
"MNMM9;;;$$$$$&&&$&$&$&$&*;;:yppy$oo+$&&:ZDDAMMMnfyaapspr2*<20008",
"DDDAdeee0666zBBmvxxvmmBx1*::::::<:<6ZAAAZVZMe77qgkzf423:::::6646",
"KGKGhuuuw0wwCHHHAAZZHHHZ6*:*++$$<44wPYUIZVVb3**:gvzg:*;;**::2412",
"GKKGgypywwwwCHHHAZZZHHHZ1*:*&$$$<6<0PUUIZVZb3*::jvkf::::::::6616",
"GGGDhpypw00wCHHHZCZZAHHZ4::&$++&<14wGIILCVMb3::3jzzg::::**&:<<6<",
"dgdggdgd4:22vZCCxkkgggfaytee:::*<<<6wttt8888addd844wffgy:*:**&:%",
"eeeedjgg4***kVBBkafaytyyypyy6::<<::<:::*:*:2jkzj1*&6xvvg:::*&&&&",
"eeeydhgg4*:*xBBBgdfayyyypppp<::::<:<<:<::**<jzzj<*&6xvvf:::*&&&$",
"eyeedggd4:::kmmmgaaaytwypyyy4<22<<<<<<<<:&:<jzzj1*:6kxxf:***&&&&",
"yyyeyyyy00006<4<&&$$$$+@*::<yadgvmmmyyyw<%*:68888888::<&&:&:<<<<",
"yeyeeeeywwww&++@XXXX X X$$$&ggjzAAAZgafy:::*:<:<qqt4++++:&:&4<<4",
"eyeyeeeewwww&+$+oXXX   X@@@*djkxZAAZgaay:&**<<:20qq4++++$:::4<6<",
"yeyeyyyettww:&$&OoXXXXXX@%%&fgjzAAAZgffa<::::<<2qwe8$++$:&&:<6<4",
"4444cVVBVVVmbbmxywwe&&$&xmmmvvvvAHHZZCCBggdd8440kcckaaay<:<<<<<:",
":::2mDDHDDDDDDDHkddy<&:6ZHHAmmmmAAZHHAGAccczq44wmBBmkxzg61<<:<*<",
":<<<mDAAADDDDDAAkaaa:*&6ZHHHmmmmAAHAZHAAccczq48qbBBmkkkf22<<:<<<",
"<::2mAHADADAAAHAgffy:&&<CHAAmvvmAHZHHAHAbjcjq86evmmbkkka<<<24<<<",
":<:<pgjgkxxxgjjgkkkf$++$0tttytyaZAAHAHAZyqeeyuye<:*<6644:::8vmmm",
"<:<<ypfdggggdpfdkkkg$oo+:1<<0w0tZHAZHZHZe448pspyOXXO<:<:::&0AHHZ",
"<<:<taaaggggdpddjzxg$ooo<<110wwtZGGHZHAZe488pppu+XoO::<:**&0ZHAH",
":::&wyyydgggddppggga$+++<<<6000wMCCZZAZVe888yyue+oo$4664441tZAZZ",
"++++&:::agggfaap:$$$:*::<:<24461<<:6pfgfpppy%@@#*::8VVZZVZZMggjg",
"o+o+&&$:akggfaya&ooO:<:<:<:1266<&&$&yapaaaat@ooO:::qADDDDDDCdddd",
"++oo&&&&agkgfaay&ooO:<<:::::4616&&&:yaaadppy@ooO&::0ADHADDDCgdfd",
"o+++&&&:yfffyyyy&@+@466166664666:*&:etyyyype@OO#664eZAAAAAAVdfdf",
"$$+$&::<:&&&::::::&4xBmBAAZCfaapw006&$$$:::::**3BAACgjjzvccvddpd",
"++$$::<*$+$$+&$&*<:6BZZZGGHHgdfawww0+oo+*:;*;;*3AGHAgfgjccczdpdp",
"$$$$&:::$$++$&$$:<<6BZZZGGGDgffawww6+oo+*:;;***3AHKAggggcxckdppd",
"$$$$<661:&:::<<::<&6vBBVDGGDgfffyttt:&&&:**;;;;3VAACgdggvkvgpyyy",
":<&<gMmmcxccxxxx2@%&2228VAZZxxkxZAZZZVVb6:2:***:6448gdgdgggy**:*",
"<:<<xCVCBMMMmmmb4%%%***2BZZZxxxvAGGGDDDZ8:*:::::***1dddggdgy&%&%",
"<::<cVCVMmMMmmmv3#%%*:*2VZAZvxxvAGGDDDDZ4:;;*::&*:*6dgdgddgy&%%%",
"6666kbbmmmmmbvbv4%%**::2cMMbkkkxZAZAZAAM8233;:&::::4dggddgdy&%%%",
"mBBm0161gxxxgjkg4***;*:*%%%&4666yyyygjjgpyye<::<eyeyggjgddae$@@@",
"CCZC0&*:fxxxjjgg4*;*;;;*OXoO22<<qqqeddggpppy<<<2eyypgjggppae%@@@",
"ZZZC8***fxxkjggf3*;;*;;*oooO:2<4qweedgffpppy2::2eyypjjjgddae$@@@",
"BBBmq<11gvxvgggf3*;::::;$@@$:4<4qqqwpaaappyy2:<2qyeeddgpyypq%%$$",
"2324djjjMCCCgaaa2**<pypyyttw::::::::<:<<ypdy2:::::::&&&&%%%*::<<",
"*:*:dzzzBZZZgyap4**:pppdpaat<&&*:::*&&&:ydpp2:2::::*$$$$@@@%222<",
";*::dzgkVZZCjpap2*::ydpppayp:%&&***:&&&:ypay22:::&&&$+$+@@@%<<<<",
"3::1pgggmBVBjpda8::2eyyyyyyt421<2<2:::*<eyyt2*:<3124:::*@%@%4244",
"dsds2%&&epypggggppyt:&&&6648mBmmpyyyyypt%@@@*:*2bMVMCCCx<::6yppa",
"hgjd*O++8eeedgggdpay&+$$<168VZZZgdpdaaay@XXO*:*2MAZAZHGm2<:4aadd",
"dgjd:@O@8yeydgggdaat&$$$<626BZZVdddpaayy@XOO*:*2MAAZAGHm<::4addd",
"jggg*@O@qetydgggaaay&$+$<<40BAZVgppdppat@OX@***2VZZAAHZm<<:4dddd"
};
